<?xml version="1.0" encoding="iso-8859-1"?>
<svg version="1.1" id="Layer_1" xmlns="http://www.w3.org/2000/svg" xmlns:xlink="http://www.w3.org/1999/xlink" x="0px" y="0px"
     viewBox="0 0 512 512" style="enable-background:new 0 0 512 512;" xml:space="preserve">
    <g>
        <path d="M467.054,160.244c0-58.282-47.246-105.527-105.527-105.527h-0.002l35.176-52.763c0,0-105.525-17.588-140.701,52.762
            C220.823-15.634,115.298,1.954,115.298,1.954l35.177,52.763h-0.002c-58.281,0-105.527,47.244-105.527,105.527
            c0,37.585,19.665,70.557,49.251,89.251c-9.056,21.197-14.076,44.531-14.076,69.039c0,57.535,27.629,108.613,70.341,140.702H80.122
            H80.12v35.176h0.002h96.861c1.094,9.891,9.475,17.588,19.658,17.588s18.562-7.696,19.658-17.588h0.259
            c1.094,9.891,9.474,17.588,19.658,17.588s18.562-7.696,19.658-17.588h0.128h0.002h0.128c1.094,9.891,9.475,17.588,19.658,17.588
            s18.562-7.696,19.658-17.588h0.259C296.8,504.304,305.181,512,315.364,512s18.562-7.696,19.658-17.588h96.861v-35.176h-70.341
            c42.712-32.089,70.341-83.167,70.341-140.702c0-24.509-5.018-47.842-14.076-69.039
            C447.387,230.801,467.054,197.83,467.054,160.244z M150.473,230.596c-38.853,0-70.351-31.496-70.351-70.351
            c0-38.855,31.498-70.351,70.351-70.351c38.853,0,70.351,31.496,70.351,70.351C220.825,199.099,189.327,230.596,150.473,230.596z
             M256,318.533l-52.763-52.762l52.762-52.762v-0.002H256v0.002l52.762,52.762L256,318.533z M361.527,230.596
            c-38.853,0-70.351-31.496-70.351-70.351s31.498-70.351,70.351-70.351s70.351,31.496,70.351,70.351S400.38,230.596,361.527,230.596
            z"/>
    </g>
    <g>
        <circle cx="150.48" cy="160.243" r="35.176"/>
    </g>
    <g>
        <circle cx="361.534" cy="160.243" r="35.176"/>
    </g>
</svg>
